<svg width="169" height="66" viewBox="0 0 169 66" fill="none" xmlns="http://www.w3.org/2000/svg">
<g clip-path="url(#clip0_424_1141)">
<path d="M62.4132 0.572266V45.3272H51.1494V12.9074C51.1494 12.0431 47.1568 12.7074 46.4711 12.7931C38.1215 13.9002 29.7005 16.9358 22.3294 20.9213C20.8152 21.7355 19.3295 23.0926 17.6582 23.4069V1.02939C17.6582 1.00082 18.0868 0.572266 18.1153 0.572266H62.4132Z" fill="#FFC300"/>
<path d="M0.00195312 65.1196C0.930479 48.2847 11.9299 32.4283 26.7864 24.7715C31.8933 22.1431 42.607 18.279 48.2496 18.2147C48.5853 18.2147 49.0996 18.0504 49.0138 18.529C42.9141 21.7931 37.4073 27.2714 33.4217 32.9283C26.7292 42.435 23.5437 53.4844 23.4437 65.1196H0.00195312Z" fill="#028226"/>
<path d="M77 12.0424V2H83.414V3.39279H78.7213V6.32836H82.5497V7.69258H78.7213V12.0424H77ZM87.5138 12.2138C86.9424 12.2138 86.4424 12.0924 86.0281 11.8567C85.6139 11.6281 85.2925 11.271 85.071 10.7996C84.8568 10.3282 84.7425 9.74248 84.7425 9.0568V4.80701H86.471V8.87109C86.471 9.49249 86.5995 9.9639 86.8638 10.2853C87.1281 10.6067 87.5281 10.7639 88.0566 10.7639C88.3994 10.7639 88.6994 10.6781 88.9708 10.5139C89.2494 10.3424 89.4565 10.1139 89.6137 9.80676C89.7779 9.50678 89.8494 9.13537 89.8494 8.68539V4.80701H91.5707V12.0424H90.0494L89.9279 10.8353C89.7137 11.2567 89.3994 11.5924 88.9851 11.8352C88.5709 12.0852 88.078 12.2138 87.5138 12.2138ZM96.6419 12.0424C96.1562 12.0424 95.7277 11.9638 95.3705 11.8067C95.0134 11.6567 94.7348 11.3995 94.5349 11.0496C94.342 10.6924 94.242 10.221 94.242 9.62106V6.24265H92.9992V4.80701H94.242L94.442 2.89996H95.9634V4.80701H97.9204V6.24265H95.9634V9.62106C95.9634 9.97818 96.0419 10.2282 96.1991 10.371C96.3491 10.5067 96.6133 10.5782 96.999 10.5782H97.8918V12.0424H96.6419ZM102.22 12.2138C101.649 12.2138 101.149 12.0924 100.735 11.8567C100.32 11.6281 99.9989 11.271 99.7775 10.7996C99.5632 10.3282 99.4489 9.74248 99.4489 9.0568V4.80701H101.177V8.87109C101.177 9.49249 101.306 9.9639 101.57 10.2853C101.834 10.6067 102.234 10.7639 102.763 10.7639C103.106 10.7639 103.406 10.6781 103.677 10.5139C103.956 10.3424 104.163 10.1139 104.32 9.80676C104.484 9.50678 104.556 9.13537 104.556 8.68539V4.80701H106.277V12.0424H104.756L104.634 10.8353C104.42 11.2567 104.106 11.5924 103.692 11.8352C103.277 12.0852 102.784 12.2138 102.22 12.2138ZM108.22 12.0424V4.80701H109.756L109.898 6.16408C110.084 5.84267 110.298 5.57125 110.548 5.34984C110.791 5.12128 111.098 4.94986 111.448 4.82129C111.805 4.69987 112.191 4.64273 112.627 4.64273V6.44264H112.005C111.72 6.44264 111.448 6.47835 111.191 6.54978C110.934 6.6212 110.705 6.74263 110.52 6.9069C110.334 7.06404 110.191 7.28546 110.091 7.56401C109.991 7.84257 109.941 8.17827 109.941 8.58539V12.0424H108.22ZM117.134 12.2138C116.412 12.2138 115.784 12.0567 115.234 11.7352C114.691 11.421 114.262 10.9853 113.962 10.421C113.655 9.85676 113.498 9.20679 113.498 8.47111C113.498 7.71401 113.648 7.04975 113.955 6.47121C114.255 5.89981 114.684 5.44983 115.234 5.12842C115.784 4.79986 116.412 4.64273 117.141 4.64273C117.855 4.64273 118.469 4.79986 118.991 5.11413C119.512 5.42126 119.919 5.84981 120.212 6.37121C120.498 6.89976 120.648 7.49973 120.648 8.16398C120.648 8.26398 120.648 8.36397 120.648 8.47111C120.648 8.58539 120.641 8.70681 120.619 8.84252H114.734V7.73543H118.912C118.891 7.22117 118.712 6.80691 118.377 6.49978C118.041 6.19979 117.627 6.04266 117.134 6.04266C116.777 6.04266 116.455 6.12123 116.155 6.2855C115.855 6.44978 115.627 6.69263 115.455 7.01404C115.284 7.33545 115.198 7.73543 115.198 8.22827V8.64253C115.198 9.09251 115.284 9.47821 115.448 9.79962C115.612 10.121 115.841 10.3639 116.127 10.5353C116.412 10.7067 116.748 10.7924 117.112 10.7924C117.519 10.7924 117.848 10.7067 118.112 10.5353C118.377 10.3639 118.569 10.1353 118.684 9.8639H120.434C120.319 10.2996 120.105 10.6996 119.798 11.0567C119.484 11.421 119.105 11.6995 118.655 11.9067C118.198 12.1138 117.698 12.2138 117.134 12.2138Z" fill="#231F20"/>
<path d="M77 29.2578V19.2225H80.6141C81.4212 19.2225 82.0855 19.3511 82.6212 19.6225C83.1497 19.9011 83.5354 20.2653 83.7925 20.7225C84.0425 21.1867 84.1711 21.7081 84.1711 22.301C84.1711 22.8581 84.0497 23.3652 83.7997 23.8223C83.5497 24.2794 83.164 24.6508 82.6354 24.9437C82.114 25.2294 81.4355 25.3722 80.6141 25.3722H78.7213V29.2578H77ZM78.7213 23.9652H80.5284C81.1998 23.9652 81.6855 23.8152 81.9783 23.5152C82.2783 23.2152 82.4212 22.8009 82.4212 22.2867C82.4212 21.7581 82.2783 21.351 81.9783 21.0582C81.6855 20.7653 81.1998 20.6225 80.5284 20.6225H78.7213V23.9652ZM87.5852 29.4292C87.0067 29.4292 86.5138 29.3292 86.121 29.1292C85.721 28.9292 85.4282 28.6649 85.2353 28.3221C85.0496 27.9935 84.9496 27.6221 84.9496 27.2221C84.9496 26.7722 85.0639 26.3793 85.2996 26.0436C85.5353 25.7079 85.8781 25.4508 86.3424 25.2651C86.7995 25.0794 87.3709 24.9865 88.0495 24.9865H89.8708C89.8708 24.6008 89.8137 24.2866 89.7065 24.0294C89.5994 23.7795 89.428 23.5866 89.2137 23.458C88.9923 23.3295 88.6994 23.2652 88.3494 23.2652C87.9566 23.2652 87.6209 23.3509 87.3424 23.5366C87.0709 23.7152 86.8995 23.9866 86.8281 24.3509H85.1353C85.1925 23.8366 85.371 23.3938 85.6639 23.0152C85.9496 22.6509 86.3281 22.3581 86.8067 22.1581C87.2781 21.9581 87.7923 21.8581 88.3494 21.8581C89.0351 21.8581 89.6208 21.9795 90.1065 22.2081C90.5922 22.4438 90.9565 22.7795 91.2136 23.208C91.4636 23.6366 91.5921 24.158 91.5921 24.7794V29.2578H90.1136L89.9422 28.115C89.8422 28.3078 89.7208 28.4792 89.578 28.6364C89.428 28.7935 89.2565 28.9363 89.0637 29.0506C88.8637 29.172 88.6423 29.2649 88.4066 29.3363C88.1637 29.4006 87.8923 29.4292 87.5852 29.4292ZM87.978 28.0721C88.2566 28.0721 88.5066 28.0221 88.7209 27.915C88.9423 27.815 89.128 27.6721 89.2851 27.4864C89.4351 27.3078 89.5565 27.0936 89.6494 26.8579C89.7422 26.6222 89.7922 26.3793 89.8137 26.115V26.0865H88.2352C87.8923 26.0865 87.6138 26.1365 87.3995 26.215C87.1852 26.3008 87.0209 26.4222 86.9138 26.565C86.8067 26.7222 86.7567 26.8936 86.7567 27.0936C86.7567 27.3078 86.8067 27.4864 86.9067 27.6221C87.0138 27.765 87.1566 27.8792 87.3424 27.9578C87.5209 28.0292 87.7352 28.0721 87.978 28.0721ZM96.4419 29.2578C95.9562 29.2578 95.5277 29.1863 95.1705 29.0292C94.8134 28.8792 94.5349 28.6221 94.342 28.2649C94.142 27.915 94.0492 27.4364 94.0492 26.8364V23.4652H92.7992V22.0295H94.0492L94.242 20.1225H95.7634V22.0295H97.7204V23.4652H95.7634V26.8364C95.7634 27.2007 95.8419 27.4507 95.9991 27.5864C96.1491 27.7293 96.4205 27.7935 96.799 27.7935H97.6918V29.2578H96.4419ZM99.356 29.2578V18.9297H101.07V23.1509C101.306 22.7581 101.627 22.4438 102.034 22.2081C102.449 21.9795 102.913 21.8581 103.442 21.8581C104.027 21.8581 104.527 21.9795 104.934 22.2224C105.349 22.4652 105.663 22.8295 105.877 23.308C106.091 23.7794 106.199 24.3723 106.199 25.0722V29.2578H104.492V25.2294C104.492 24.608 104.363 24.1294 104.106 23.8009C103.842 23.4723 103.442 23.308 102.913 23.308C102.563 23.308 102.256 23.3938 101.97 23.5652C101.692 23.7366 101.47 23.9794 101.313 24.2937C101.156 24.6151 101.07 24.9937 101.07 25.4294V29.2578H99.356ZM109.448 29.2578L107.327 22.0295H109.034L110.513 27.9578H110.198L111.848 22.0295H113.77L115.434 27.9578L115.12 27.965L116.598 22.0295H118.305L116.198 29.2578H114.42L112.655 23.1223H113.013L111.234 29.2578H109.448ZM121.605 29.4292C121.026 29.4292 120.534 29.3292 120.141 29.1292C119.741 28.9292 119.448 28.6649 119.255 28.3221C119.062 27.9935 118.969 27.6221 118.969 27.2221C118.969 26.7722 119.084 26.3793 119.319 26.0436C119.555 25.7079 119.898 25.4508 120.355 25.2651C120.819 25.0794 121.384 24.9865 122.062 24.9865H123.891C123.891 24.6008 123.833 24.2866 123.726 24.0294C123.612 23.7795 123.448 23.5866 123.226 23.458C123.012 23.3295 122.719 23.2652 122.369 23.2652C121.969 23.2652 121.641 23.3509 121.362 23.5366C121.084 23.7152 120.912 23.9866 120.848 24.3509H119.155C119.212 23.8366 119.384 23.3938 119.676 23.0152C119.969 22.6509 120.348 22.3581 120.826 22.1581C121.298 21.9581 121.812 21.8581 122.369 21.8581C123.055 21.8581 123.641 21.9795 124.126 22.2081C124.605 22.4438 124.976 22.7795 125.226 23.208C125.483 23.6366 125.605 24.158 125.605 24.7794V29.2578H124.133L123.962 28.115C123.862 28.3078 123.741 28.4792 123.598 28.6364C123.441 28.7935 123.276 28.9363 123.076 29.0506C122.876 29.172 122.662 29.2649 122.426 29.3363C122.184 29.4006 121.912 29.4292 121.605 29.4292ZM121.991 28.0721C122.269 28.0721 122.519 28.0221 122.741 27.915C122.962 27.815 123.148 27.6721 123.305 27.4864C123.455 27.3078 123.576 27.0936 123.669 26.8579C123.755 26.6222 123.812 26.3793 123.833 26.115V26.0865H122.255C121.905 26.0865 121.626 26.1365 121.412 26.215C121.198 26.3008 121.034 26.4222 120.934 26.565C120.826 26.7222 120.769 26.8936 120.769 27.0936C120.769 27.3078 120.826 27.4864 120.926 27.6221C121.026 27.765 121.169 27.8792 121.355 27.9578C121.541 28.0292 121.755 28.0721 121.991 28.0721ZM128.076 32.4147L129.826 28.4578H129.397L126.512 22.0295H128.39L130.526 26.9507L132.569 22.0295H134.39L129.897 32.4147H128.076ZM138.176 29.4292C137.526 29.4292 136.968 29.322 136.497 29.1149C136.033 28.9078 135.661 28.6149 135.39 28.2578C135.119 27.8935 134.954 27.4721 134.904 26.9936H136.626C136.669 27.1936 136.747 27.3793 136.883 27.5436C137.018 27.7007 137.19 27.8364 137.404 27.9364C137.611 28.0364 137.868 28.0864 138.161 28.0864C138.454 28.0864 138.683 28.0435 138.854 27.965C139.033 27.8792 139.168 27.7721 139.261 27.6364C139.347 27.5007 139.397 27.3578 139.397 27.2079C139.397 26.9722 139.333 26.7864 139.218 26.6722C139.097 26.5507 138.918 26.4507 138.69 26.3793C138.454 26.3008 138.161 26.2365 137.818 26.1793C137.49 26.1079 137.168 26.0293 136.84 25.9293C136.511 25.8365 136.226 25.7079 135.976 25.5508C135.719 25.3937 135.511 25.1937 135.361 24.9508C135.211 24.7151 135.133 24.4223 135.133 24.0794C135.133 23.658 135.247 23.2795 135.476 22.9438C135.697 22.6009 136.026 22.3367 136.461 22.1438C136.897 21.951 137.404 21.8581 137.99 21.8581C138.84 21.8581 139.518 22.051 140.011 22.4295C140.497 22.8152 140.797 23.358 140.89 24.0509H139.254C139.197 23.7866 139.061 23.5795 138.847 23.4295C138.633 23.2795 138.34 23.208 137.976 23.208C137.597 23.208 137.318 23.2723 137.118 23.4152C136.926 23.558 136.826 23.7366 136.826 23.9652C136.826 24.1223 136.89 24.2509 137.004 24.3651C137.126 24.4794 137.297 24.5866 137.526 24.6723C137.747 24.7651 138.033 24.8437 138.376 24.9151C138.911 25.008 139.383 25.1294 139.797 25.2794C140.211 25.4294 140.533 25.6436 140.775 25.9151C141.011 26.1936 141.133 26.5865 141.133 27.0936C141.133 27.5578 141.011 27.9721 140.775 28.3221C140.533 28.6721 140.197 28.9435 139.754 29.1363C139.311 29.3363 138.79 29.4292 138.176 29.4292Z" fill="#231F20"/>
<path d="M77 46.4765V36.4341H80.2427C81.4069 36.4341 82.3712 36.6341 83.1354 37.0484C83.8925 37.4627 84.4568 38.0412 84.8282 38.7912C85.1996 39.5483 85.3782 40.4339 85.3782 41.4696C85.3782 42.4838 85.1996 43.3624 84.8282 44.1195C84.4568 44.8694 83.8925 45.448 83.1354 45.8551C82.3712 46.2694 81.4069 46.4765 80.2427 46.4765H77ZM78.7213 45.0123H80.157C81.0141 45.0123 81.6998 44.8694 82.2069 44.5909C82.714 44.3052 83.0783 43.8981 83.2925 43.3695C83.5068 42.8338 83.614 42.2053 83.614 41.4696C83.614 40.7268 83.5068 40.084 83.2925 39.5554C83.0783 39.0197 82.714 38.6126 82.2069 38.3198C81.6998 38.0269 81.0141 37.8841 80.157 37.8841H78.7213V45.0123ZM90.3851 46.6479C89.6637 46.6479 89.0351 46.4908 88.4923 46.1694C87.9423 45.8551 87.5209 45.4194 87.2138 44.8552C86.9067 44.2909 86.7567 43.6409 86.7567 42.9052C86.7567 42.1481 86.9067 41.4839 87.2066 40.9053C87.5138 40.3339 87.9352 39.884 88.4852 39.5626C89.0351 39.234 89.6708 39.0769 90.3993 39.0769C91.1065 39.0769 91.7207 39.234 92.2421 39.5483C92.7635 39.8554 93.1706 40.2839 93.4635 40.8054C93.7563 41.3339 93.8992 41.9339 93.8992 42.5981C93.8992 42.6981 93.8992 42.7981 93.8992 42.9124C93.8992 43.0195 93.892 43.141 93.8706 43.2767H87.9923V42.1696H92.1635C92.1421 41.6553 91.9707 41.241 91.635 40.9339C91.2993 40.6339 90.885 40.4768 90.3851 40.4768C90.0351 40.4768 89.7065 40.5554 89.4065 40.7196C89.1137 40.8839 88.878 41.1268 88.7066 41.4482C88.5351 41.7696 88.4494 42.1696 88.4494 42.6624V43.0767C88.4494 43.5266 88.5351 43.9123 88.6994 44.2338C88.8708 44.5552 89.0923 44.798 89.378 44.9694C89.6708 45.1409 89.9994 45.2266 90.3708 45.2266C90.7708 45.2266 91.1065 45.1409 91.3707 44.9694C91.635 44.798 91.8207 44.5695 91.935 44.298H93.6849C93.5706 44.7337 93.3563 45.1337 93.0492 45.4908C92.7349 45.8551 92.3564 46.1337 91.9064 46.3408C91.4564 46.5479 90.9493 46.6479 90.3851 46.6479ZM97.1847 46.4765L94.5134 39.2411H96.3276L98.2132 44.8409L100.142 39.2411H101.934L99.2489 46.4765H97.1847ZM106.191 46.6479C105.47 46.6479 104.841 46.4908 104.299 46.1694C103.756 45.8551 103.327 45.4194 103.02 44.8552C102.713 44.2909 102.563 43.6409 102.563 42.9052C102.563 42.1481 102.713 41.4839 103.02 40.9053C103.32 40.3339 103.742 39.884 104.292 39.5626C104.841 39.234 105.477 39.0769 106.206 39.0769C106.92 39.0769 107.534 39.234 108.048 39.5483C108.57 39.8554 108.977 40.2839 109.27 40.8054C109.563 41.3339 109.706 41.9339 109.706 42.5981C109.706 42.6981 109.706 42.7981 109.706 42.9124C109.706 43.0195 109.698 43.141 109.677 43.2767H103.799V42.1696H107.97C107.948 41.6553 107.777 41.241 107.441 40.9339C107.106 40.6339 106.691 40.4768 106.191 40.4768C105.841 40.4768 105.513 40.5554 105.22 40.7196C104.92 40.8839 104.692 41.1268 104.52 41.4482C104.342 41.7696 104.256 42.1696 104.256 42.6624V43.0767C104.256 43.5266 104.342 43.9123 104.513 44.2338C104.677 44.5552 104.899 44.798 105.191 44.9694C105.477 45.1409 105.806 45.2266 106.177 45.2266C106.577 45.2266 106.913 45.1409 107.177 44.9694C107.441 44.798 107.627 44.5695 107.741 44.298H109.491C109.377 44.7337 109.163 45.1337 108.856 45.4908C108.541 45.8551 108.163 46.1337 107.713 46.3408C107.263 46.5479 106.756 46.6479 106.191 46.6479ZM111.313 46.4765V36.1484H113.034V46.4765H111.313ZM118.312 46.6479C117.627 46.6479 117.005 46.4908 116.455 46.1694C115.912 45.8551 115.477 45.4123 115.162 44.8337C114.855 44.2623 114.698 43.6124 114.698 42.8767C114.698 42.1196 114.855 41.4553 115.177 40.8768C115.484 40.3054 115.92 39.8554 116.469 39.5483C117.019 39.234 117.641 39.0769 118.327 39.0769C119.019 39.0769 119.634 39.234 120.176 39.5483C120.726 39.8554 121.155 40.3054 121.476 40.8696C121.798 41.441 121.955 42.1053 121.955 42.8624C121.955 43.6052 121.798 44.2623 121.476 44.8337C121.148 45.4123 120.712 45.8551 120.169 46.1694C119.619 46.4908 118.998 46.6479 118.312 46.6479ZM118.312 45.1694C118.655 45.1694 118.969 45.0837 119.255 44.9052C119.534 44.7266 119.762 44.4695 119.941 44.1195C120.112 43.7766 120.198 43.3552 120.198 42.8624C120.198 42.3553 120.112 41.9267 119.941 41.5839C119.776 41.241 119.548 40.9839 119.269 40.8054C118.991 40.6339 118.677 40.5482 118.341 40.5482C117.998 40.5482 117.684 40.6339 117.398 40.8054C117.112 40.9839 116.884 41.241 116.712 41.5839C116.534 41.9267 116.448 42.3553 116.448 42.8624C116.448 43.3552 116.534 43.7766 116.712 44.1195C116.884 44.4695 117.112 44.7266 117.391 44.9052C117.669 45.0837 117.977 45.1694 118.312 45.1694ZM123.633 49.6335V39.2411H125.169L125.326 40.2911C125.49 40.0697 125.683 39.8697 125.898 39.6911C126.112 39.5054 126.369 39.3554 126.669 39.2411C126.969 39.134 127.333 39.0769 127.755 39.0769C128.44 39.0769 129.047 39.234 129.562 39.5626C130.076 39.8983 130.483 40.3482 130.783 40.9196C131.076 41.4839 131.226 42.141 131.226 42.8767C131.226 43.6052 131.076 44.248 130.776 44.8194C130.476 45.3837 130.062 45.8337 129.54 46.1622C129.019 46.4836 128.426 46.6479 127.755 46.6479C127.198 46.6479 126.719 46.5479 126.312 46.3408C125.905 46.1337 125.59 45.8408 125.355 45.4623V49.6335H123.633ZM127.398 45.1551C127.798 45.1551 128.155 45.0551 128.462 44.8623C128.776 44.6694 129.019 44.398 129.197 44.0552C129.369 43.7195 129.462 43.3267 129.462 42.8767C129.462 42.4267 129.369 42.0267 129.197 41.6767C129.019 41.3268 128.776 41.0553 128.462 40.8625C128.155 40.6625 127.798 40.5696 127.398 40.5696C126.976 40.5696 126.612 40.6625 126.298 40.8625C125.99 41.0553 125.748 41.3196 125.576 41.6696C125.405 42.0124 125.319 42.4196 125.319 42.8767C125.319 43.3124 125.405 43.7052 125.576 44.0552C125.748 44.398 125.99 44.6694 126.298 44.8623C126.612 45.0551 126.976 45.1551 127.398 45.1551ZM132.904 46.4765V39.2411H134.426L134.54 40.2197C134.776 39.8697 135.083 39.584 135.469 39.3769C135.854 39.1769 136.283 39.0769 136.747 39.0769C137.126 39.0769 137.454 39.1197 137.747 39.2126C138.04 39.3126 138.297 39.4554 138.526 39.6411C138.747 39.834 138.933 40.0768 139.076 40.3625C139.333 39.9625 139.676 39.6483 140.111 39.4126C140.54 39.1911 141.011 39.0769 141.525 39.0769C142.133 39.0769 142.64 39.1983 143.068 39.4411C143.482 39.684 143.804 40.0411 144.018 40.5125C144.24 40.9911 144.34 41.5696 144.34 42.2553V46.4765H142.632V42.4196C142.632 41.8053 142.511 41.3339 142.261 41.0125C142.011 40.6839 141.647 40.5197 141.168 40.5197C140.833 40.5197 140.547 40.6054 140.297 40.7696C140.047 40.9339 139.847 41.1768 139.704 41.491C139.561 41.8053 139.49 42.1839 139.49 42.6338V46.4765H137.768V42.4196C137.768 41.8053 137.647 41.3339 137.397 41.0125C137.147 40.6839 136.769 40.5197 136.261 40.5197C135.947 40.5197 135.669 40.6054 135.419 40.7696C135.169 40.9339 134.976 41.1768 134.84 41.491C134.697 41.8053 134.626 42.1839 134.626 42.6338V46.4765H132.904ZM149.568 46.6479C148.846 46.6479 148.211 46.4908 147.668 46.1694C147.125 45.8551 146.697 45.4194 146.389 44.8552C146.089 44.2909 145.932 43.6409 145.932 42.9052C145.932 42.1481 146.082 41.4839 146.389 40.9053C146.689 40.3339 147.118 39.884 147.668 39.5626C148.211 39.234 148.846 39.0769 149.575 39.0769C150.289 39.0769 150.904 39.234 151.425 39.5483C151.946 39.8554 152.353 40.2839 152.646 40.8054C152.932 41.3339 153.082 41.9339 153.082 42.5981C153.082 42.6981 153.082 42.7981 153.082 42.9124C153.082 43.0195 153.068 43.141 153.053 43.2767H147.168V42.1696H151.339C151.325 41.6553 151.146 41.241 150.811 40.9339C150.475 40.6339 150.061 40.4768 149.568 40.4768C149.211 40.4768 148.882 40.5554 148.589 40.7196C148.289 40.8839 148.061 41.1268 147.889 41.4482C147.711 41.7696 147.625 42.1696 147.625 42.6624V43.0767C147.625 43.5266 147.711 43.9123 147.882 44.2338C148.047 44.5552 148.268 44.798 148.561 44.9694C148.846 45.1409 149.175 45.2266 149.546 45.2266C149.954 45.2266 150.282 45.1409 150.546 44.9694C150.811 44.798 151.004 44.5695 151.111 44.298H152.861C152.746 44.7337 152.539 45.1337 152.225 45.4908C151.918 45.8551 151.539 46.1337 151.089 46.3408C150.632 46.5479 150.132 46.6479 149.568 46.6479ZM154.682 46.4765V39.2411H156.203L156.318 40.4482C156.539 40.0268 156.853 39.6911 157.268 39.4411C157.682 39.1983 158.167 39.0769 158.732 39.0769C159.31 39.0769 159.81 39.1983 160.224 39.4411C160.632 39.684 160.946 40.0411 161.174 40.5054C161.389 40.9696 161.503 41.5553 161.503 42.2553V46.4765H159.796V42.4267C159.796 41.8053 159.66 41.3339 159.389 41.0125C159.125 40.6839 158.725 40.5197 158.196 40.5197C157.853 40.5197 157.546 40.6054 157.282 40.7696C157.018 40.9339 156.803 41.1768 156.646 41.4839C156.489 41.7839 156.403 42.1624 156.403 42.6195V46.4765H154.682ZM166.481 46.4765C165.989 46.4765 165.567 46.3979 165.21 46.2408C164.846 46.0908 164.574 45.8408 164.374 45.4837C164.181 45.1266 164.081 44.6552 164.081 44.0552V40.6768H162.839V39.2411H164.081L164.281 37.3341H165.803V39.2411H167.76V40.6768H165.803V44.0552C165.803 44.4123 165.881 44.6694 166.038 44.8052C166.188 44.9409 166.453 45.0123 166.838 45.0123H167.731V46.4765H166.481Z" fill="#231F20"/>
<path d="M77 63.6905V53.6553H78.7213V63.6905H77ZM80.6998 63.6905V56.4623H82.2212L82.3355 57.6694C82.5569 57.248 82.8711 56.9123 83.2854 56.6623C83.6925 56.4123 84.1854 56.2909 84.7496 56.2909C85.3282 56.2909 85.8281 56.4123 86.2424 56.6551C86.6495 56.9051 86.9638 57.2551 87.1924 57.7265C87.4066 58.1908 87.5209 58.7765 87.5209 59.4764V63.6905H85.8067V59.6478C85.8067 59.0264 85.6781 58.555 85.4067 58.2265C85.1425 57.9051 84.7425 57.7408 84.2139 57.7408C83.8711 57.7408 83.564 57.8194 83.2997 57.9908C83.0354 58.1551 82.8211 58.3979 82.664 58.6979C82.5069 59.005 82.4212 59.3836 82.4212 59.8336V63.6905H80.6998ZM89.428 63.6905V56.4623H91.1493V63.6905H89.428ZM90.2851 55.3123C89.9708 55.3123 89.7137 55.2195 89.5065 55.0195C89.2994 54.8267 89.1994 54.5838 89.1994 54.2981C89.1994 53.9981 89.2994 53.7553 89.5065 53.5696C89.7137 53.3839 89.9708 53.291 90.2851 53.291C90.5993 53.291 90.8636 53.3839 91.0707 53.5696C91.2779 53.7553 91.3779 53.9981 91.3779 54.2981C91.3779 54.5838 91.2779 54.8267 91.0707 55.0195C90.8636 55.2195 90.5993 55.3123 90.2851 55.3123ZM96.2848 63.6905C95.7919 63.6905 95.3705 63.6191 95.0134 63.4619C94.6491 63.312 94.3777 63.0548 94.1777 62.7048C93.9849 62.3477 93.8849 61.8692 93.8849 61.2692V57.8979H92.6421V56.4623H93.8849L94.0849 54.5552H95.6062V56.4623H97.5633V57.8979H95.6062V61.2692C95.6062 61.6335 95.6848 61.8835 95.8419 62.0192C95.9919 62.162 96.2562 62.2263 96.6419 62.2263H97.5347V63.6905H96.2848ZM99.2489 63.6905V56.4623H100.97V63.6905H99.2489ZM100.113 55.3123C99.7989 55.3123 99.5346 55.2195 99.3346 55.0195C99.1275 54.8267 99.0275 54.5838 99.0275 54.2981C99.0275 53.9981 99.1275 53.7553 99.3346 53.5696C99.5346 53.3839 99.7989 53.291 100.113 53.291C100.427 53.291 100.685 53.3839 100.892 53.5696C101.099 53.7553 101.206 53.9981 101.206 54.2981C101.206 54.5838 101.099 54.8267 100.892 55.0195C100.685 55.2195 100.427 55.3123 100.113 55.3123ZM105.377 63.8619C104.799 63.8619 104.306 63.7619 103.906 63.5619C103.513 63.362 103.22 63.0977 103.027 62.762C102.834 62.4263 102.734 62.062 102.734 61.6549C102.734 61.2049 102.856 60.8121 103.092 60.4764C103.32 60.1407 103.67 59.8836 104.127 59.6978C104.584 59.5121 105.156 59.4193 105.834 59.4193H107.656C107.656 59.0336 107.606 58.7193 107.499 58.4622C107.384 58.2122 107.22 58.0194 106.999 57.8908C106.777 57.7622 106.491 57.6979 106.134 57.6979C105.741 57.6979 105.413 57.7837 105.134 57.9694C104.856 58.1479 104.684 58.4265 104.613 58.7836H102.927C102.984 58.2693 103.156 57.8265 103.449 57.448C103.742 57.0837 104.12 56.7908 104.599 56.5909C105.07 56.3909 105.577 56.2909 106.134 56.2909C106.827 56.2909 107.413 56.4123 107.891 56.6409C108.377 56.8766 108.741 57.2123 108.998 57.6408C109.256 58.0694 109.377 58.5908 109.377 59.2193V63.6905H107.906L107.734 62.5477C107.634 62.7406 107.513 62.912 107.363 63.0691C107.213 63.2262 107.041 63.3691 106.849 63.4834C106.649 63.6048 106.434 63.6976 106.191 63.7691C105.956 63.8334 105.684 63.8619 105.377 63.8619ZM105.763 62.5049C106.041 62.5049 106.291 62.4549 106.513 62.3549C106.734 62.2477 106.92 62.1049 107.07 61.9192C107.227 61.7406 107.349 61.5263 107.441 61.2906C107.527 61.0549 107.584 60.8121 107.599 60.5478V60.5192H106.027C105.677 60.5192 105.399 60.5692 105.184 60.6549C104.97 60.7335 104.806 60.8549 104.699 61.0049C104.599 61.1549 104.542 61.3263 104.542 61.5263C104.542 61.7406 104.599 61.9192 104.699 62.062C104.799 62.1977 104.941 62.312 105.127 62.3906C105.313 62.4691 105.52 62.5049 105.763 62.5049ZM114.227 63.6905C113.741 63.6905 113.32 63.6191 112.963 63.4619C112.598 63.312 112.32 63.0548 112.127 62.7048C111.934 62.3477 111.834 61.8692 111.834 61.2692V57.8979H110.584V56.4623H111.834L112.034 54.5552H113.555V56.4623H115.505V57.8979H113.555V61.2692C113.555 61.6335 113.634 61.8835 113.784 62.0192C113.934 62.162 114.205 62.2263 114.591 62.2263H115.477V63.6905H114.227ZM117.198 63.6905V56.4623H118.919V63.6905H117.198ZM118.062 55.3123C117.741 55.3123 117.484 55.2195 117.284 55.0195C117.069 54.8267 116.969 54.5838 116.969 54.2981C116.969 53.9981 117.069 53.7553 117.284 53.5696C117.484 53.3839 117.741 53.291 118.062 53.291C118.377 53.291 118.634 53.3839 118.841 53.5696C119.048 53.7553 119.148 53.9981 119.148 54.2981C119.148 54.5838 119.048 54.8267 118.841 55.0195C118.634 55.2195 118.377 55.3123 118.062 55.3123ZM122.891 63.6905L120.226 56.4623H122.034L123.926 62.062L125.848 56.4623H127.64L124.962 63.6905H122.891ZM131.904 63.8619C131.183 63.8619 130.555 63.7048 130.005 63.3905C129.462 63.0763 129.033 62.6334 128.733 62.0692C128.426 61.5049 128.269 60.8621 128.269 60.1264C128.269 59.3693 128.419 58.6979 128.726 58.1265C129.026 57.5551 129.455 57.1051 130.005 56.7766C130.555 56.4551 131.19 56.2909 131.912 56.2909C132.626 56.2909 133.24 56.448 133.762 56.7623C134.283 57.0765 134.69 57.498 134.983 58.0265C135.269 58.555 135.419 59.1479 135.419 59.8193C135.419 59.9121 135.419 60.0193 135.419 60.1264C135.419 60.2335 135.411 60.3621 135.39 60.4907H129.505V59.3907H133.683C133.662 58.8765 133.483 58.4622 133.154 58.1551C132.812 57.8479 132.397 57.6979 131.904 57.6979C131.547 57.6979 131.226 57.7765 130.926 57.9408C130.633 58.1051 130.397 58.3408 130.226 58.6622C130.055 58.9836 129.969 59.3907 129.969 59.8764V60.2907C129.969 60.7478 130.055 61.1263 130.219 61.4478C130.383 61.7692 130.612 62.012 130.897 62.1834C131.19 62.362 131.519 62.4477 131.89 62.4477C132.29 62.4477 132.626 62.362 132.89 62.1834C133.154 62.012 133.34 61.7906 133.454 61.512H135.204C135.09 61.9549 134.876 62.3549 134.569 62.712C134.254 63.0691 133.876 63.3548 133.426 63.5548C132.976 63.7619 132.469 63.8619 131.904 63.8619Z" fill="#231F20"/>
</g>
<defs>
<clipPath id="clip0_424_1141">
<rect width="168.359" height="65.1182" fill="white"/>
</clipPath>
</defs>
</svg>
